<mxfile host="app.diagrams.net" modified="2023-05-11T10:49:36.166Z" agent="5.0 (Windows NT 10.0; Win64; x64) AppleWebKit/537.36 (KHTML, like Gecko) Chrome/112.0.0.0 Safari/537.36" etag="S3hsGIz27O7swwzFvqXQ" version="21.0.6" type="github">
  <diagram name="第 1 页" id="cqg5E_1wBNMM9SQnja3M">
    <mxGraphModel dx="1050" dy="541" grid="0" gridSize="10" guides="1" tooltips="1" connect="1" arrows="1" fold="1" page="1" pageScale="1" pageWidth="3300" pageHeight="4681" math="0" shadow="0">
      <root>
        <mxCell id="0" />
        <mxCell id="1" parent="0" />
        <mxCell id="9hPCl79W62L0wL_UR3R--8" style="edgeStyle=orthogonalEdgeStyle;rounded=0;orthogonalLoop=1;jettySize=auto;html=1;entryX=0;entryY=0.5;entryDx=0;entryDy=0;labelBackgroundColor=none;fontColor=default;strokeColor=#A8201A;" edge="1" parent="1" source="9hPCl79W62L0wL_UR3R--1" target="9hPCl79W62L0wL_UR3R--4">
          <mxGeometry relative="1" as="geometry" />
        </mxCell>
        <mxCell id="9hPCl79W62L0wL_UR3R--1" value="理财申请" style="rounded=1;whiteSpace=wrap;html=1;labelBackgroundColor=none;fillColor=#FAE5C7;strokeColor=#0F8B8D;fontColor=#143642;" vertex="1" parent="1">
          <mxGeometry x="190" y="120" width="120" height="60" as="geometry" />
        </mxCell>
        <mxCell id="9hPCl79W62L0wL_UR3R--11" style="edgeStyle=orthogonalEdgeStyle;rounded=0;orthogonalLoop=1;jettySize=auto;html=1;entryX=0;entryY=0.5;entryDx=0;entryDy=0;labelBackgroundColor=none;fontColor=default;strokeColor=#A8201A;" edge="1" parent="1" source="9hPCl79W62L0wL_UR3R--3" target="9hPCl79W62L0wL_UR3R--7">
          <mxGeometry relative="1" as="geometry">
            <mxPoint x="390" y="330" as="targetPoint" />
            <Array as="points">
              <mxPoint x="240" y="330" />
            </Array>
          </mxGeometry>
        </mxCell>
        <mxCell id="9hPCl79W62L0wL_UR3R--3" value="理财收益" style="rounded=1;whiteSpace=wrap;html=1;labelBackgroundColor=none;fillColor=#FAE5C7;strokeColor=#0F8B8D;fontColor=#143642;" vertex="1" parent="1">
          <mxGeometry x="190" y="490" width="120" height="60" as="geometry" />
        </mxCell>
        <mxCell id="9hPCl79W62L0wL_UR3R--9" style="edgeStyle=orthogonalEdgeStyle;rounded=0;orthogonalLoop=1;jettySize=auto;html=1;labelBackgroundColor=none;fontColor=default;strokeColor=#A8201A;" edge="1" parent="1" source="9hPCl79W62L0wL_UR3R--4" target="9hPCl79W62L0wL_UR3R--5">
          <mxGeometry relative="1" as="geometry" />
        </mxCell>
        <mxCell id="9hPCl79W62L0wL_UR3R--4" value="理财申购" style="rounded=1;whiteSpace=wrap;html=1;labelBackgroundColor=none;fillColor=#FAE5C7;strokeColor=#0F8B8D;fontColor=#143642;" vertex="1" parent="1">
          <mxGeometry x="590" y="120" width="120" height="60" as="geometry" />
        </mxCell>
        <mxCell id="9hPCl79W62L0wL_UR3R--10" style="edgeStyle=orthogonalEdgeStyle;rounded=0;orthogonalLoop=1;jettySize=auto;html=1;entryX=1;entryY=0.5;entryDx=0;entryDy=0;labelBackgroundColor=none;fontColor=default;strokeColor=#A8201A;" edge="1" parent="1" source="9hPCl79W62L0wL_UR3R--5" target="9hPCl79W62L0wL_UR3R--3">
          <mxGeometry relative="1" as="geometry" />
        </mxCell>
        <mxCell id="9hPCl79W62L0wL_UR3R--5" value="理财赎回" style="rounded=1;whiteSpace=wrap;html=1;labelBackgroundColor=none;fillColor=#FAE5C7;strokeColor=#0F8B8D;fontColor=#143642;" vertex="1" parent="1">
          <mxGeometry x="590" y="490" width="120" height="60" as="geometry" />
        </mxCell>
        <mxCell id="9hPCl79W62L0wL_UR3R--84" style="edgeStyle=orthogonalEdgeStyle;rounded=0;orthogonalLoop=1;jettySize=auto;html=1;labelBackgroundColor=none;strokeColor=#A8201A;fontColor=default;" edge="1" parent="1" source="9hPCl79W62L0wL_UR3R--7" target="9hPCl79W62L0wL_UR3R--56">
          <mxGeometry relative="1" as="geometry" />
        </mxCell>
        <mxCell id="9hPCl79W62L0wL_UR3R--7" value="收款处理" style="rounded=1;whiteSpace=wrap;html=1;labelBackgroundColor=none;fillColor=#FAE5C7;strokeColor=#0F8B8D;fontColor=#143642;" vertex="1" parent="1">
          <mxGeometry x="370" y="300" width="120" height="60" as="geometry" />
        </mxCell>
        <mxCell id="9hPCl79W62L0wL_UR3R--13" value="理财申请公司" style="rounded=1;whiteSpace=wrap;html=1;labelBackgroundColor=none;fillColor=#FAE5C7;strokeColor=#0F8B8D;fontColor=#143642;" vertex="1" parent="1">
          <mxGeometry x="60" y="30" width="80" height="40" as="geometry" />
        </mxCell>
        <mxCell id="9hPCl79W62L0wL_UR3R--14" value="币别" style="rounded=1;whiteSpace=wrap;html=1;labelBackgroundColor=none;fillColor=#FAE5C7;strokeColor=#0F8B8D;fontColor=#143642;" vertex="1" parent="1">
          <mxGeometry x="60" y="90" width="80" height="40" as="geometry" />
        </mxCell>
        <mxCell id="9hPCl79W62L0wL_UR3R--15" value="申请类型" style="rounded=1;whiteSpace=wrap;html=1;labelBackgroundColor=none;fillColor=#FAE5C7;strokeColor=#0F8B8D;fontColor=#143642;" vertex="1" parent="1">
          <mxGeometry x="200" y="30" width="80" height="40" as="geometry" />
        </mxCell>
        <mxCell id="9hPCl79W62L0wL_UR3R--16" value="业务状态" style="rounded=1;whiteSpace=wrap;html=1;labelBackgroundColor=none;fillColor=#FAE5C7;strokeColor=#0F8B8D;fontColor=#143642;" vertex="1" parent="1">
          <mxGeometry x="60" y="150" width="80" height="40" as="geometry" />
        </mxCell>
        <mxCell id="9hPCl79W62L0wL_UR3R--17" value="客户" style="rounded=1;whiteSpace=wrap;html=1;labelBackgroundColor=none;fillColor=#FAE5C7;strokeColor=#0F8B8D;fontColor=#143642;" vertex="1" parent="1">
          <mxGeometry x="320" y="30" width="80" height="40" as="geometry" />
        </mxCell>
        <mxCell id="9hPCl79W62L0wL_UR3R--18" value="理财方案" style="rounded=1;whiteSpace=wrap;html=1;labelBackgroundColor=none;fillColor=#FAE5C7;strokeColor=#0F8B8D;fontColor=#143642;" vertex="1" parent="1">
          <mxGeometry x="60" y="210" width="80" height="40" as="geometry" />
        </mxCell>
        <mxCell id="9hPCl79W62L0wL_UR3R--20" value="理财申购公司" style="rounded=1;whiteSpace=wrap;html=1;labelBackgroundColor=none;fillColor=#FAE5C7;strokeColor=#0F8B8D;fontColor=#143642;" vertex="1" parent="1">
          <mxGeometry x="500" y="30" width="80" height="40" as="geometry" />
        </mxCell>
        <mxCell id="9hPCl79W62L0wL_UR3R--21" value="投资品种" style="rounded=1;whiteSpace=wrap;html=1;labelBackgroundColor=none;fillColor=#FAE5C7;strokeColor=#0F8B8D;fontColor=#143642;" vertex="1" parent="1">
          <mxGeometry x="630" y="30" width="80" height="40" as="geometry" />
        </mxCell>
        <mxCell id="9hPCl79W62L0wL_UR3R--22" value="客户" style="rounded=1;whiteSpace=wrap;html=1;labelBackgroundColor=none;fillColor=#FAE5C7;strokeColor=#0F8B8D;fontColor=#143642;" vertex="1" parent="1">
          <mxGeometry x="760" y="30" width="80" height="40" as="geometry" />
        </mxCell>
        <mxCell id="9hPCl79W62L0wL_UR3R--23" value="投资模型" style="rounded=1;whiteSpace=wrap;html=1;labelBackgroundColor=none;fillColor=#FAE5C7;strokeColor=#0F8B8D;fontColor=#143642;" vertex="1" parent="1">
          <mxGeometry x="760" y="30" width="80" height="40" as="geometry" />
        </mxCell>
        <mxCell id="9hPCl79W62L0wL_UR3R--26" value="发行机构" style="rounded=1;whiteSpace=wrap;html=1;labelBackgroundColor=none;fillColor=#FAE5C7;strokeColor=#0F8B8D;fontColor=#143642;" vertex="1" parent="1">
          <mxGeometry x="760" y="100" width="80" height="40" as="geometry" />
        </mxCell>
        <mxCell id="9hPCl79W62L0wL_UR3R--27" value="理财账户" style="rounded=1;whiteSpace=wrap;html=1;labelBackgroundColor=none;fillColor=#FAE5C7;strokeColor=#0F8B8D;fontColor=#143642;" vertex="1" parent="1">
          <mxGeometry x="760" y="160" width="80" height="40" as="geometry" />
        </mxCell>
        <mxCell id="9hPCl79W62L0wL_UR3R--28" value="结算方式" style="rounded=1;whiteSpace=wrap;html=1;labelBackgroundColor=none;fillColor=#FAE5C7;strokeColor=#0F8B8D;fontColor=#143642;" vertex="1" parent="1">
          <mxGeometry x="760" y="280" width="80" height="40" as="geometry" />
        </mxCell>
        <mxCell id="9hPCl79W62L0wL_UR3R--29" value="结算账户" style="rounded=1;whiteSpace=wrap;html=1;labelBackgroundColor=none;fillColor=#FAE5C7;strokeColor=#0F8B8D;fontColor=#143642;" vertex="1" parent="1">
          <mxGeometry x="760" y="220" width="80" height="40" as="geometry" />
        </mxCell>
        <mxCell id="9hPCl79W62L0wL_UR3R--30" value="交易性金融资产项目" style="rounded=1;whiteSpace=wrap;html=1;labelBackgroundColor=none;fillColor=#FAE5C7;strokeColor=#0F8B8D;fontColor=#143642;" vertex="1" parent="1">
          <mxGeometry x="460" y="85" width="80" height="40" as="geometry" />
        </mxCell>
        <mxCell id="9hPCl79W62L0wL_UR3R--31" value="产品信息" style="rounded=1;whiteSpace=wrap;html=1;labelBackgroundColor=none;fillColor=#FAE5C7;strokeColor=#0F8B8D;fontColor=#143642;" vertex="1" parent="1">
          <mxGeometry x="460" y="170" width="80" height="40" as="geometry" />
        </mxCell>
        <mxCell id="9hPCl79W62L0wL_UR3R--33" value="赎回组织" style="rounded=1;whiteSpace=wrap;html=1;labelBackgroundColor=none;fillColor=#FAE5C7;strokeColor=#0F8B8D;fontColor=#143642;" vertex="1" parent="1">
          <mxGeometry x="760" y="400" width="80" height="40" as="geometry" />
        </mxCell>
        <mxCell id="9hPCl79W62L0wL_UR3R--34" value="产品" style="rounded=1;whiteSpace=wrap;html=1;labelBackgroundColor=none;fillColor=#FAE5C7;strokeColor=#0F8B8D;fontColor=#143642;" vertex="1" parent="1">
          <mxGeometry x="760" y="460" width="80" height="40" as="geometry" />
        </mxCell>
        <mxCell id="9hPCl79W62L0wL_UR3R--144" style="edgeStyle=orthogonalEdgeStyle;rounded=0;orthogonalLoop=1;jettySize=auto;html=1;entryX=1;entryY=0.5;entryDx=0;entryDy=0;labelBackgroundColor=none;strokeColor=#A8201A;fontColor=default;" edge="1" parent="1" source="9hPCl79W62L0wL_UR3R--35" target="9hPCl79W62L0wL_UR3R--27">
          <mxGeometry relative="1" as="geometry">
            <Array as="points">
              <mxPoint x="890" y="600" />
              <mxPoint x="890" y="180" />
            </Array>
          </mxGeometry>
        </mxCell>
        <mxCell id="9hPCl79W62L0wL_UR3R--35" value="理财账户" style="rounded=1;whiteSpace=wrap;html=1;labelBackgroundColor=none;fillColor=#FAE5C7;strokeColor=#0F8B8D;fontColor=#143642;" vertex="1" parent="1">
          <mxGeometry x="760" y="580" width="80" height="40" as="geometry" />
        </mxCell>
        <mxCell id="9hPCl79W62L0wL_UR3R--143" style="edgeStyle=orthogonalEdgeStyle;rounded=0;orthogonalLoop=1;jettySize=auto;html=1;entryX=1;entryY=0.5;entryDx=0;entryDy=0;labelBackgroundColor=none;strokeColor=#A8201A;fontColor=default;" edge="1" parent="1" source="9hPCl79W62L0wL_UR3R--36" target="9hPCl79W62L0wL_UR3R--26">
          <mxGeometry relative="1" as="geometry">
            <Array as="points">
              <mxPoint x="860" y="540" />
              <mxPoint x="860" y="120" />
            </Array>
          </mxGeometry>
        </mxCell>
        <mxCell id="9hPCl79W62L0wL_UR3R--36" value="发行机构" style="rounded=1;whiteSpace=wrap;html=1;labelBackgroundColor=none;fillColor=#FAE5C7;strokeColor=#0F8B8D;fontColor=#143642;" vertex="1" parent="1">
          <mxGeometry x="760" y="520" width="80" height="40" as="geometry" />
        </mxCell>
        <mxCell id="9hPCl79W62L0wL_UR3R--37" value="赎回信息" style="rounded=1;whiteSpace=wrap;html=1;labelBackgroundColor=none;fillColor=#FAE5C7;strokeColor=#0F8B8D;fontColor=#143642;" vertex="1" parent="1">
          <mxGeometry x="460" y="580" width="80" height="40" as="geometry" />
        </mxCell>
        <mxCell id="9hPCl79W62L0wL_UR3R--38" value="交易渠道" style="rounded=1;whiteSpace=wrap;html=1;labelBackgroundColor=none;fillColor=#FAE5C7;strokeColor=#0F8B8D;fontColor=#143642;" vertex="1" parent="1">
          <mxGeometry x="560" y="580" width="80" height="40" as="geometry" />
        </mxCell>
        <mxCell id="9hPCl79W62L0wL_UR3R--39" value="客户" style="rounded=1;whiteSpace=wrap;html=1;labelBackgroundColor=none;fillColor=#FAE5C7;strokeColor=#0F8B8D;fontColor=#143642;" vertex="1" parent="1">
          <mxGeometry x="660" y="580" width="80" height="40" as="geometry" />
        </mxCell>
        <mxCell id="9hPCl79W62L0wL_UR3R--40" value="赎回方式" style="rounded=1;whiteSpace=wrap;html=1;labelBackgroundColor=none;fillColor=#FAE5C7;strokeColor=#0F8B8D;fontColor=#143642;" vertex="1" parent="1">
          <mxGeometry x="660" y="580" width="80" height="40" as="geometry" />
        </mxCell>
        <mxCell id="9hPCl79W62L0wL_UR3R--41" value="预计收益" style="rounded=1;whiteSpace=wrap;html=1;labelBackgroundColor=none;fillColor=#FAE5C7;strokeColor=#0F8B8D;fontColor=#143642;" vertex="1" parent="1">
          <mxGeometry x="420" y="395" width="80" height="40" as="geometry" />
        </mxCell>
        <mxCell id="9hPCl79W62L0wL_UR3R--43" value="收益组织" style="rounded=1;whiteSpace=wrap;html=1;labelBackgroundColor=none;fillColor=#FAE5C7;strokeColor=#0F8B8D;fontColor=#143642;" vertex="1" parent="1">
          <mxGeometry x="60" y="435" width="80" height="40" as="geometry" />
        </mxCell>
        <mxCell id="9hPCl79W62L0wL_UR3R--44" value="收益类型" style="rounded=1;whiteSpace=wrap;html=1;labelBackgroundColor=none;fillColor=#FAE5C7;strokeColor=#0F8B8D;fontColor=#143642;" vertex="1" parent="1">
          <mxGeometry x="60" y="500" width="80" height="40" as="geometry" />
        </mxCell>
        <mxCell id="9hPCl79W62L0wL_UR3R--45" value="理财收益信息" style="rounded=1;whiteSpace=wrap;html=1;labelBackgroundColor=none;fillColor=#FAE5C7;strokeColor=#0F8B8D;fontColor=#143642;" vertex="1" parent="1">
          <mxGeometry x="180" y="580" width="80" height="40" as="geometry" />
        </mxCell>
        <mxCell id="9hPCl79W62L0wL_UR3R--46" value="收益方案" style="rounded=1;whiteSpace=wrap;html=1;labelBackgroundColor=none;fillColor=#FAE5C7;strokeColor=#0F8B8D;fontColor=#143642;" vertex="1" parent="1">
          <mxGeometry x="60" y="565" width="80" height="40" as="geometry" />
        </mxCell>
        <mxCell id="9hPCl79W62L0wL_UR3R--48" value="分红方式" style="rounded=1;whiteSpace=wrap;html=1;labelBackgroundColor=none;fillColor=#FAE5C7;strokeColor=#0F8B8D;fontColor=#143642;" vertex="1" parent="1">
          <mxGeometry x="290" y="580" width="80" height="40" as="geometry" />
        </mxCell>
        <mxCell id="9hPCl79W62L0wL_UR3R--55" value="收款类型" style="rounded=1;whiteSpace=wrap;html=1;labelBackgroundColor=none;fillColor=#FAE5C7;strokeColor=#0F8B8D;fontColor=#143642;" vertex="1" parent="1">
          <mxGeometry x="60" y="290" width="80" height="40" as="geometry" />
        </mxCell>
        <mxCell id="9hPCl79W62L0wL_UR3R--56" value="往来类型" style="rounded=1;whiteSpace=wrap;html=1;labelBackgroundColor=none;fillColor=#FAE5C7;strokeColor=#0F8B8D;fontColor=#143642;" vertex="1" parent="1">
          <mxGeometry x="540" y="310" width="80" height="40" as="geometry" />
        </mxCell>
        <mxCell id="9hPCl79W62L0wL_UR3R--57" value="实际付款账户" style="rounded=1;whiteSpace=wrap;html=1;labelBackgroundColor=none;fillColor=#FAE5C7;strokeColor=#0F8B8D;fontColor=#143642;" vertex="1" parent="1">
          <mxGeometry x="410" y="220" width="80" height="40" as="geometry" />
        </mxCell>
        <mxCell id="9hPCl79W62L0wL_UR3R--58" value="收款方" style="rounded=1;whiteSpace=wrap;html=1;labelBackgroundColor=none;fillColor=#FAE5C7;strokeColor=#0F8B8D;fontColor=#143642;" vertex="1" parent="1">
          <mxGeometry x="180" y="220" width="80" height="40" as="geometry" />
        </mxCell>
        <mxCell id="9hPCl79W62L0wL_UR3R--59" value="付款方" style="rounded=1;whiteSpace=wrap;html=1;labelBackgroundColor=none;fillColor=#FAE5C7;strokeColor=#0F8B8D;fontColor=#143642;" vertex="1" parent="1">
          <mxGeometry x="300" y="220" width="80" height="40" as="geometry" />
        </mxCell>
        <mxCell id="9hPCl79W62L0wL_UR3R--60" value="" style="endArrow=classic;html=1;rounded=0;entryX=1;entryY=0.5;entryDx=0;entryDy=0;labelBackgroundColor=none;strokeColor=#A8201A;fontColor=default;" edge="1" parent="1" target="9hPCl79W62L0wL_UR3R--13">
          <mxGeometry width="50" height="50" relative="1" as="geometry">
            <mxPoint x="220" y="120" as="sourcePoint" />
            <mxPoint x="480" y="250" as="targetPoint" />
          </mxGeometry>
        </mxCell>
        <mxCell id="9hPCl79W62L0wL_UR3R--61" value="" style="endArrow=classic;html=1;rounded=0;entryX=1;entryY=0.5;entryDx=0;entryDy=0;exitX=0;exitY=0.25;exitDx=0;exitDy=0;labelBackgroundColor=none;strokeColor=#A8201A;fontColor=default;" edge="1" parent="1" source="9hPCl79W62L0wL_UR3R--1" target="9hPCl79W62L0wL_UR3R--14">
          <mxGeometry width="50" height="50" relative="1" as="geometry">
            <mxPoint x="230" y="130" as="sourcePoint" />
            <mxPoint x="150" y="60" as="targetPoint" />
          </mxGeometry>
        </mxCell>
        <mxCell id="9hPCl79W62L0wL_UR3R--62" value="" style="endArrow=classic;html=1;rounded=0;entryX=1;entryY=0.5;entryDx=0;entryDy=0;exitX=0;exitY=0.667;exitDx=0;exitDy=0;exitPerimeter=0;labelBackgroundColor=none;strokeColor=#A8201A;fontColor=default;" edge="1" parent="1" source="9hPCl79W62L0wL_UR3R--1" target="9hPCl79W62L0wL_UR3R--16">
          <mxGeometry width="50" height="50" relative="1" as="geometry">
            <mxPoint x="200" y="145" as="sourcePoint" />
            <mxPoint x="150" y="120" as="targetPoint" />
          </mxGeometry>
        </mxCell>
        <mxCell id="9hPCl79W62L0wL_UR3R--63" value="" style="endArrow=classic;html=1;rounded=0;entryX=1;entryY=0.5;entryDx=0;entryDy=0;labelBackgroundColor=none;strokeColor=#A8201A;fontColor=default;" edge="1" parent="1" target="9hPCl79W62L0wL_UR3R--18">
          <mxGeometry width="50" height="50" relative="1" as="geometry">
            <mxPoint x="200" y="180" as="sourcePoint" />
            <mxPoint x="150" y="180" as="targetPoint" />
          </mxGeometry>
        </mxCell>
        <mxCell id="9hPCl79W62L0wL_UR3R--64" value="" style="endArrow=classic;html=1;rounded=0;entryX=0.5;entryY=1;entryDx=0;entryDy=0;labelBackgroundColor=none;strokeColor=#A8201A;fontColor=default;" edge="1" parent="1" source="9hPCl79W62L0wL_UR3R--1" target="9hPCl79W62L0wL_UR3R--15">
          <mxGeometry width="50" height="50" relative="1" as="geometry">
            <mxPoint x="200" y="190" as="sourcePoint" />
            <mxPoint x="150" y="240" as="targetPoint" />
          </mxGeometry>
        </mxCell>
        <mxCell id="9hPCl79W62L0wL_UR3R--65" value="" style="endArrow=classic;html=1;rounded=0;entryX=0.5;entryY=1;entryDx=0;entryDy=0;exitX=0.75;exitY=0;exitDx=0;exitDy=0;labelBackgroundColor=none;strokeColor=#A8201A;fontColor=default;" edge="1" parent="1" source="9hPCl79W62L0wL_UR3R--1" target="9hPCl79W62L0wL_UR3R--17">
          <mxGeometry width="50" height="50" relative="1" as="geometry">
            <mxPoint x="256" y="130" as="sourcePoint" />
            <mxPoint x="250" y="80" as="targetPoint" />
          </mxGeometry>
        </mxCell>
        <mxCell id="9hPCl79W62L0wL_UR3R--66" value="" style="endArrow=classic;html=1;rounded=0;entryX=0.5;entryY=1;entryDx=0;entryDy=0;labelBackgroundColor=none;strokeColor=#A8201A;fontColor=default;" edge="1" parent="1" source="9hPCl79W62L0wL_UR3R--4" target="9hPCl79W62L0wL_UR3R--21">
          <mxGeometry width="50" height="50" relative="1" as="geometry">
            <mxPoint x="660" y="270" as="sourcePoint" />
            <mxPoint x="740" y="220" as="targetPoint" />
          </mxGeometry>
        </mxCell>
        <mxCell id="9hPCl79W62L0wL_UR3R--67" value="" style="endArrow=classic;html=1;rounded=0;entryX=1;entryY=0.5;entryDx=0;entryDy=0;labelBackgroundColor=none;strokeColor=#A8201A;fontColor=default;" edge="1" parent="1" source="9hPCl79W62L0wL_UR3R--4" target="9hPCl79W62L0wL_UR3R--20">
          <mxGeometry width="50" height="50" relative="1" as="geometry">
            <mxPoint x="668" y="130" as="sourcePoint" />
            <mxPoint x="680" y="80" as="targetPoint" />
          </mxGeometry>
        </mxCell>
        <mxCell id="9hPCl79W62L0wL_UR3R--68" value="" style="endArrow=classic;html=1;rounded=0;entryX=0;entryY=0.75;entryDx=0;entryDy=0;exitX=0.75;exitY=0;exitDx=0;exitDy=0;labelBackgroundColor=none;strokeColor=#A8201A;fontColor=default;" edge="1" parent="1" source="9hPCl79W62L0wL_UR3R--4" target="9hPCl79W62L0wL_UR3R--23">
          <mxGeometry width="50" height="50" relative="1" as="geometry">
            <mxPoint x="668" y="130" as="sourcePoint" />
            <mxPoint x="680" y="80" as="targetPoint" />
          </mxGeometry>
        </mxCell>
        <mxCell id="9hPCl79W62L0wL_UR3R--69" value="" style="endArrow=classic;html=1;rounded=0;entryX=0;entryY=0.5;entryDx=0;entryDy=0;exitX=1;exitY=0.25;exitDx=0;exitDy=0;labelBackgroundColor=none;strokeColor=#A8201A;fontColor=default;" edge="1" parent="1" source="9hPCl79W62L0wL_UR3R--4" target="9hPCl79W62L0wL_UR3R--26">
          <mxGeometry width="50" height="50" relative="1" as="geometry">
            <mxPoint x="690" y="130" as="sourcePoint" />
            <mxPoint x="770" y="70" as="targetPoint" />
          </mxGeometry>
        </mxCell>
        <mxCell id="9hPCl79W62L0wL_UR3R--70" value="" style="endArrow=classic;html=1;rounded=0;entryX=0;entryY=0.5;entryDx=0;entryDy=0;exitX=1;exitY=0.75;exitDx=0;exitDy=0;labelBackgroundColor=none;strokeColor=#A8201A;fontColor=default;" edge="1" parent="1" source="9hPCl79W62L0wL_UR3R--4" target="9hPCl79W62L0wL_UR3R--27">
          <mxGeometry width="50" height="50" relative="1" as="geometry">
            <mxPoint x="720" y="145" as="sourcePoint" />
            <mxPoint x="770" y="130" as="targetPoint" />
          </mxGeometry>
        </mxCell>
        <mxCell id="9hPCl79W62L0wL_UR3R--71" value="" style="endArrow=classic;html=1;rounded=0;entryX=0;entryY=0.5;entryDx=0;entryDy=0;exitX=0.947;exitY=1.017;exitDx=0;exitDy=0;exitPerimeter=0;labelBackgroundColor=none;strokeColor=#A8201A;fontColor=default;" edge="1" parent="1" source="9hPCl79W62L0wL_UR3R--4" target="9hPCl79W62L0wL_UR3R--29">
          <mxGeometry width="50" height="50" relative="1" as="geometry">
            <mxPoint x="720" y="175" as="sourcePoint" />
            <mxPoint x="770" y="190" as="targetPoint" />
          </mxGeometry>
        </mxCell>
        <mxCell id="9hPCl79W62L0wL_UR3R--72" value="" style="endArrow=classic;html=1;rounded=0;entryX=0;entryY=0.5;entryDx=0;entryDy=0;exitX=0.75;exitY=1;exitDx=0;exitDy=0;labelBackgroundColor=none;strokeColor=#A8201A;fontColor=default;" edge="1" parent="1" source="9hPCl79W62L0wL_UR3R--4" target="9hPCl79W62L0wL_UR3R--28">
          <mxGeometry width="50" height="50" relative="1" as="geometry">
            <mxPoint x="714" y="191" as="sourcePoint" />
            <mxPoint x="770" y="250" as="targetPoint" />
          </mxGeometry>
        </mxCell>
        <mxCell id="9hPCl79W62L0wL_UR3R--73" value="" style="endArrow=classic;html=1;rounded=0;entryX=1;entryY=0.5;entryDx=0;entryDy=0;exitX=0;exitY=0.75;exitDx=0;exitDy=0;labelBackgroundColor=none;strokeColor=#A8201A;fontColor=default;" edge="1" parent="1" source="9hPCl79W62L0wL_UR3R--4" target="9hPCl79W62L0wL_UR3R--31">
          <mxGeometry width="50" height="50" relative="1" as="geometry">
            <mxPoint x="690" y="190" as="sourcePoint" />
            <mxPoint x="770" y="310" as="targetPoint" />
          </mxGeometry>
        </mxCell>
        <mxCell id="9hPCl79W62L0wL_UR3R--75" value="" style="endArrow=classic;html=1;rounded=0;entryX=0;entryY=0.25;entryDx=0;entryDy=0;exitX=0.75;exitY=0;exitDx=0;exitDy=0;labelBackgroundColor=none;strokeColor=#A8201A;fontColor=default;" edge="1" parent="1" source="9hPCl79W62L0wL_UR3R--5" target="9hPCl79W62L0wL_UR3R--33">
          <mxGeometry width="50" height="50" relative="1" as="geometry">
            <mxPoint x="630" y="190" as="sourcePoint" />
            <mxPoint x="590" y="210" as="targetPoint" />
          </mxGeometry>
        </mxCell>
        <mxCell id="9hPCl79W62L0wL_UR3R--76" value="" style="endArrow=classic;html=1;rounded=0;entryX=0;entryY=0.5;entryDx=0;entryDy=0;exitX=1;exitY=0.25;exitDx=0;exitDy=0;labelBackgroundColor=none;strokeColor=#A8201A;fontColor=default;" edge="1" parent="1" source="9hPCl79W62L0wL_UR3R--5" target="9hPCl79W62L0wL_UR3R--34">
          <mxGeometry width="50" height="50" relative="1" as="geometry">
            <mxPoint x="690" y="500" as="sourcePoint" />
            <mxPoint x="770" y="420" as="targetPoint" />
          </mxGeometry>
        </mxCell>
        <mxCell id="9hPCl79W62L0wL_UR3R--77" value="" style="endArrow=classic;html=1;rounded=0;entryX=0;entryY=0.25;entryDx=0;entryDy=0;exitX=1;exitY=0.5;exitDx=0;exitDy=0;labelBackgroundColor=none;strokeColor=#A8201A;fontColor=default;" edge="1" parent="1" source="9hPCl79W62L0wL_UR3R--5" target="9hPCl79W62L0wL_UR3R--36">
          <mxGeometry width="50" height="50" relative="1" as="geometry">
            <mxPoint x="720" y="515" as="sourcePoint" />
            <mxPoint x="770" y="490" as="targetPoint" />
          </mxGeometry>
        </mxCell>
        <mxCell id="9hPCl79W62L0wL_UR3R--78" value="" style="endArrow=classic;html=1;rounded=0;entryX=0;entryY=0;entryDx=0;entryDy=0;exitX=1;exitY=0.75;exitDx=0;exitDy=0;labelBackgroundColor=none;strokeColor=#A8201A;fontColor=default;" edge="1" parent="1" source="9hPCl79W62L0wL_UR3R--5" target="9hPCl79W62L0wL_UR3R--35">
          <mxGeometry width="50" height="50" relative="1" as="geometry">
            <mxPoint x="720" y="530" as="sourcePoint" />
            <mxPoint x="770" y="540" as="targetPoint" />
          </mxGeometry>
        </mxCell>
        <mxCell id="9hPCl79W62L0wL_UR3R--79" value="" style="endArrow=classic;html=1;rounded=0;exitX=0.75;exitY=1;exitDx=0;exitDy=0;labelBackgroundColor=none;strokeColor=#A8201A;fontColor=default;" edge="1" parent="1" source="9hPCl79W62L0wL_UR3R--5" target="9hPCl79W62L0wL_UR3R--40">
          <mxGeometry width="50" height="50" relative="1" as="geometry">
            <mxPoint x="720" y="545" as="sourcePoint" />
            <mxPoint x="770" y="590" as="targetPoint" />
          </mxGeometry>
        </mxCell>
        <mxCell id="9hPCl79W62L0wL_UR3R--80" value="" style="endArrow=classic;html=1;rounded=0;exitX=0.427;exitY=1.01;exitDx=0;exitDy=0;entryX=0.5;entryY=0;entryDx=0;entryDy=0;exitPerimeter=0;labelBackgroundColor=none;strokeColor=#A8201A;fontColor=default;" edge="1" parent="1" source="9hPCl79W62L0wL_UR3R--5" target="9hPCl79W62L0wL_UR3R--38">
          <mxGeometry width="50" height="50" relative="1" as="geometry">
            <mxPoint x="690" y="560" as="sourcePoint" />
            <mxPoint x="702" y="590" as="targetPoint" />
          </mxGeometry>
        </mxCell>
        <mxCell id="9hPCl79W62L0wL_UR3R--81" value="" style="endArrow=classic;html=1;rounded=0;exitX=0;exitY=0.75;exitDx=0;exitDy=0;entryX=0.5;entryY=0;entryDx=0;entryDy=0;labelBackgroundColor=none;strokeColor=#A8201A;fontColor=default;" edge="1" parent="1" source="9hPCl79W62L0wL_UR3R--5" target="9hPCl79W62L0wL_UR3R--37">
          <mxGeometry width="50" height="50" relative="1" as="geometry">
            <mxPoint x="651" y="561" as="sourcePoint" />
            <mxPoint x="610" y="590" as="targetPoint" />
          </mxGeometry>
        </mxCell>
        <mxCell id="9hPCl79W62L0wL_UR3R--82" value="" style="endArrow=classic;html=1;rounded=0;exitX=0;exitY=0;exitDx=0;exitDy=0;entryX=0.75;entryY=1;entryDx=0;entryDy=0;labelBackgroundColor=none;strokeColor=#A8201A;fontColor=default;" edge="1" parent="1" source="9hPCl79W62L0wL_UR3R--5" target="9hPCl79W62L0wL_UR3R--41">
          <mxGeometry width="50" height="50" relative="1" as="geometry">
            <mxPoint x="600" y="545" as="sourcePoint" />
            <mxPoint x="510" y="590" as="targetPoint" />
          </mxGeometry>
        </mxCell>
        <mxCell id="9hPCl79W62L0wL_UR3R--83" value="" style="endArrow=classic;html=1;rounded=0;exitX=0.75;exitY=0;exitDx=0;exitDy=0;entryX=0.25;entryY=1;entryDx=0;entryDy=0;labelBackgroundColor=none;strokeColor=#A8201A;fontColor=default;" edge="1" parent="1" source="9hPCl79W62L0wL_UR3R--3" target="9hPCl79W62L0wL_UR3R--41">
          <mxGeometry width="50" height="50" relative="1" as="geometry">
            <mxPoint x="610" y="555" as="sourcePoint" />
            <mxPoint x="520" y="600" as="targetPoint" />
          </mxGeometry>
        </mxCell>
        <mxCell id="9hPCl79W62L0wL_UR3R--85" value="" style="endArrow=classic;html=1;rounded=0;entryX=0.5;entryY=1;entryDx=0;entryDy=0;exitX=0.5;exitY=0;exitDx=0;exitDy=0;labelBackgroundColor=none;strokeColor=#A8201A;fontColor=default;" edge="1" parent="1" source="9hPCl79W62L0wL_UR3R--7" target="9hPCl79W62L0wL_UR3R--59">
          <mxGeometry width="50" height="50" relative="1" as="geometry">
            <mxPoint x="630" y="190" as="sourcePoint" />
            <mxPoint x="590" y="210" as="targetPoint" />
          </mxGeometry>
        </mxCell>
        <mxCell id="9hPCl79W62L0wL_UR3R--86" value="" style="endArrow=classic;html=1;rounded=0;entryX=0.385;entryY=1.005;entryDx=0;entryDy=0;entryPerimeter=0;labelBackgroundColor=none;strokeColor=#A8201A;fontColor=default;" edge="1" parent="1" target="9hPCl79W62L0wL_UR3R--58">
          <mxGeometry width="50" height="50" relative="1" as="geometry">
            <mxPoint x="370" y="300" as="sourcePoint" />
            <mxPoint x="360" y="270" as="targetPoint" />
          </mxGeometry>
        </mxCell>
        <mxCell id="9hPCl79W62L0wL_UR3R--87" value="" style="endArrow=classic;html=1;rounded=0;entryX=1;entryY=0.5;entryDx=0;entryDy=0;exitX=0;exitY=0.25;exitDx=0;exitDy=0;labelBackgroundColor=none;strokeColor=#A8201A;fontColor=default;" edge="1" parent="1" source="9hPCl79W62L0wL_UR3R--7" target="9hPCl79W62L0wL_UR3R--55">
          <mxGeometry width="50" height="50" relative="1" as="geometry">
            <mxPoint x="380" y="310" as="sourcePoint" />
            <mxPoint x="221" y="270" as="targetPoint" />
          </mxGeometry>
        </mxCell>
        <mxCell id="9hPCl79W62L0wL_UR3R--89" value="" style="endArrow=classic;html=1;rounded=0;entryX=1;entryY=0.75;entryDx=0;entryDy=0;exitX=0;exitY=0.25;exitDx=0;exitDy=0;labelBackgroundColor=none;strokeColor=#A8201A;fontColor=default;" edge="1" parent="1" source="9hPCl79W62L0wL_UR3R--3" target="9hPCl79W62L0wL_UR3R--43">
          <mxGeometry width="50" height="50" relative="1" as="geometry">
            <mxPoint x="200" y="500" as="sourcePoint" />
            <mxPoint x="150" y="390" as="targetPoint" />
            <Array as="points">
              <mxPoint x="170" y="490" />
            </Array>
          </mxGeometry>
        </mxCell>
        <mxCell id="9hPCl79W62L0wL_UR3R--94" value="" style="endArrow=classic;html=1;rounded=0;entryX=1;entryY=0.5;entryDx=0;entryDy=0;exitX=0;exitY=0.5;exitDx=0;exitDy=0;labelBackgroundColor=none;strokeColor=#A8201A;fontColor=default;" edge="1" parent="1" source="9hPCl79W62L0wL_UR3R--3" target="9hPCl79W62L0wL_UR3R--44">
          <mxGeometry width="50" height="50" relative="1" as="geometry">
            <mxPoint x="430" y="400" as="sourcePoint" />
            <mxPoint x="480" y="350" as="targetPoint" />
          </mxGeometry>
        </mxCell>
        <mxCell id="9hPCl79W62L0wL_UR3R--95" value="" style="endArrow=classic;html=1;rounded=0;entryX=1;entryY=0.5;entryDx=0;entryDy=0;exitX=0;exitY=1;exitDx=0;exitDy=0;labelBackgroundColor=none;strokeColor=#A8201A;fontColor=default;" edge="1" parent="1" source="9hPCl79W62L0wL_UR3R--3" target="9hPCl79W62L0wL_UR3R--46">
          <mxGeometry width="50" height="50" relative="1" as="geometry">
            <mxPoint x="200" y="530" as="sourcePoint" />
            <mxPoint x="150" y="530" as="targetPoint" />
          </mxGeometry>
        </mxCell>
        <mxCell id="9hPCl79W62L0wL_UR3R--96" value="" style="endArrow=classic;html=1;rounded=0;exitX=0.25;exitY=1;exitDx=0;exitDy=0;labelBackgroundColor=none;strokeColor=#A8201A;fontColor=default;" edge="1" parent="1" source="9hPCl79W62L0wL_UR3R--3" target="9hPCl79W62L0wL_UR3R--45">
          <mxGeometry width="50" height="50" relative="1" as="geometry">
            <mxPoint x="200" y="560" as="sourcePoint" />
            <mxPoint x="150" y="595" as="targetPoint" />
          </mxGeometry>
        </mxCell>
        <mxCell id="9hPCl79W62L0wL_UR3R--97" value="" style="endArrow=classic;html=1;rounded=0;exitX=0.75;exitY=1;exitDx=0;exitDy=0;entryX=0.5;entryY=0;entryDx=0;entryDy=0;labelBackgroundColor=none;strokeColor=#A8201A;fontColor=default;" edge="1" parent="1" source="9hPCl79W62L0wL_UR3R--3" target="9hPCl79W62L0wL_UR3R--48">
          <mxGeometry width="50" height="50" relative="1" as="geometry">
            <mxPoint x="230" y="560" as="sourcePoint" />
            <mxPoint x="230" y="590" as="targetPoint" />
          </mxGeometry>
        </mxCell>
        <mxCell id="9hPCl79W62L0wL_UR3R--98" value="" style="endArrow=classic;html=1;rounded=0;entryX=0.5;entryY=1;entryDx=0;entryDy=0;exitX=0.687;exitY=0.003;exitDx=0;exitDy=0;exitPerimeter=0;labelBackgroundColor=none;strokeColor=#A8201A;fontColor=default;" edge="1" parent="1" source="9hPCl79W62L0wL_UR3R--7" target="9hPCl79W62L0wL_UR3R--57">
          <mxGeometry width="50" height="50" relative="1" as="geometry">
            <mxPoint x="440" y="310" as="sourcePoint" />
            <mxPoint x="350" y="270" as="targetPoint" />
          </mxGeometry>
        </mxCell>
        <mxCell id="9hPCl79W62L0wL_UR3R--99" value="生成" style="text;html=1;strokeColor=none;fillColor=none;align=center;verticalAlign=middle;whiteSpace=wrap;rounded=0;labelBackgroundColor=none;fontColor=#143642;" vertex="1" parent="1">
          <mxGeometry x="400" y="120" width="60" height="30" as="geometry" />
        </mxCell>
        <mxCell id="9hPCl79W62L0wL_UR3R--100" value="生成" style="text;html=1;strokeColor=none;fillColor=none;align=center;verticalAlign=middle;whiteSpace=wrap;rounded=0;labelBackgroundColor=none;fontColor=#143642;" vertex="1" parent="1">
          <mxGeometry x="640" y="290" width="60" height="30" as="geometry" />
        </mxCell>
        <mxCell id="9hPCl79W62L0wL_UR3R--101" value="生成" style="text;html=1;strokeColor=none;fillColor=none;align=center;verticalAlign=middle;whiteSpace=wrap;rounded=0;labelBackgroundColor=none;fontColor=#143642;" vertex="1" parent="1">
          <mxGeometry x="410" y="520" width="60" height="30" as="geometry" />
        </mxCell>
        <mxCell id="9hPCl79W62L0wL_UR3R--102" value="生成" style="text;html=1;strokeColor=none;fillColor=none;align=center;verticalAlign=middle;whiteSpace=wrap;rounded=0;labelBackgroundColor=none;fontColor=#143642;" vertex="1" parent="1">
          <mxGeometry x="190" y="380" width="60" height="30" as="geometry" />
        </mxCell>
        <mxCell id="9hPCl79W62L0wL_UR3R--103" value="包含" style="text;html=1;strokeColor=none;fillColor=none;align=center;verticalAlign=middle;whiteSpace=wrap;rounded=0;labelBackgroundColor=none;fontColor=#143642;" vertex="1" parent="1">
          <mxGeometry x="160" y="60" width="60" height="30" as="geometry" />
        </mxCell>
        <mxCell id="9hPCl79W62L0wL_UR3R--104" value="包含" style="text;html=1;strokeColor=none;fillColor=none;align=center;verticalAlign=middle;whiteSpace=wrap;rounded=0;labelBackgroundColor=none;fontColor=#143642;" vertex="1" parent="1">
          <mxGeometry x="140" y="95" width="60" height="30" as="geometry" />
        </mxCell>
        <mxCell id="9hPCl79W62L0wL_UR3R--105" value="包含" style="text;html=1;strokeColor=none;fillColor=none;align=center;verticalAlign=middle;whiteSpace=wrap;rounded=0;labelBackgroundColor=none;fontColor=#143642;" vertex="1" parent="1">
          <mxGeometry x="140" y="135" width="60" height="30" as="geometry" />
        </mxCell>
        <mxCell id="9hPCl79W62L0wL_UR3R--106" value="包含" style="text;html=1;strokeColor=none;fillColor=none;align=center;verticalAlign=middle;whiteSpace=wrap;rounded=0;labelBackgroundColor=none;fontColor=#143642;" vertex="1" parent="1">
          <mxGeometry x="130" y="180" width="60" height="30" as="geometry" />
        </mxCell>
        <mxCell id="9hPCl79W62L0wL_UR3R--107" value="包含" style="text;html=1;strokeColor=none;fillColor=none;align=center;verticalAlign=middle;whiteSpace=wrap;rounded=0;labelBackgroundColor=none;fontColor=#143642;" vertex="1" parent="1">
          <mxGeometry x="230" y="80" width="60" height="30" as="geometry" />
        </mxCell>
        <mxCell id="9hPCl79W62L0wL_UR3R--108" value="包含" style="text;html=1;strokeColor=none;fillColor=none;align=center;verticalAlign=middle;whiteSpace=wrap;rounded=0;labelBackgroundColor=none;fontColor=#143642;" vertex="1" parent="1">
          <mxGeometry x="310" y="80" width="60" height="30" as="geometry" />
        </mxCell>
        <mxCell id="9hPCl79W62L0wL_UR3R--109" value="包含" style="text;html=1;strokeColor=none;fillColor=none;align=center;verticalAlign=middle;whiteSpace=wrap;rounded=0;labelBackgroundColor=none;fontColor=#143642;" vertex="1" parent="1">
          <mxGeometry x="590" y="80" width="60" height="30" as="geometry" />
        </mxCell>
        <mxCell id="9hPCl79W62L0wL_UR3R--110" value="包含" style="text;html=1;strokeColor=none;fillColor=none;align=center;verticalAlign=middle;whiteSpace=wrap;rounded=0;labelBackgroundColor=none;fontColor=#143642;" vertex="1" parent="1">
          <mxGeometry x="650" y="80" width="60" height="30" as="geometry" />
        </mxCell>
        <mxCell id="9hPCl79W62L0wL_UR3R--111" value="" style="endArrow=classic;html=1;rounded=0;entryX=1;entryY=0.5;entryDx=0;entryDy=0;labelBackgroundColor=none;strokeColor=#A8201A;fontColor=default;" edge="1" parent="1" target="9hPCl79W62L0wL_UR3R--30">
          <mxGeometry width="50" height="50" relative="1" as="geometry">
            <mxPoint x="590" y="130" as="sourcePoint" />
            <mxPoint x="580" y="110" as="targetPoint" />
          </mxGeometry>
        </mxCell>
        <mxCell id="9hPCl79W62L0wL_UR3R--112" value="包含" style="text;html=1;strokeColor=none;fillColor=none;align=center;verticalAlign=middle;whiteSpace=wrap;rounded=0;labelBackgroundColor=none;fontColor=#143642;" vertex="1" parent="1">
          <mxGeometry x="530" y="110" width="60" height="30" as="geometry" />
        </mxCell>
        <mxCell id="9hPCl79W62L0wL_UR3R--113" value="包含" style="text;html=1;strokeColor=none;fillColor=none;align=center;verticalAlign=middle;whiteSpace=wrap;rounded=0;labelBackgroundColor=none;fontColor=#143642;" vertex="1" parent="1">
          <mxGeometry x="530" y="150" width="60" height="30" as="geometry" />
        </mxCell>
        <mxCell id="9hPCl79W62L0wL_UR3R--115" value="包含" style="text;html=1;strokeColor=none;fillColor=none;align=center;verticalAlign=middle;whiteSpace=wrap;rounded=0;labelBackgroundColor=none;fontColor=#143642;" vertex="1" parent="1">
          <mxGeometry x="700" y="80" width="60" height="30" as="geometry" />
        </mxCell>
        <mxCell id="9hPCl79W62L0wL_UR3R--116" value="包含" style="text;html=1;strokeColor=none;fillColor=none;align=center;verticalAlign=middle;whiteSpace=wrap;rounded=0;labelBackgroundColor=none;fontColor=#143642;" vertex="1" parent="1">
          <mxGeometry x="710" y="170" width="60" height="30" as="geometry" />
        </mxCell>
        <mxCell id="9hPCl79W62L0wL_UR3R--117" value="包含" style="text;html=1;strokeColor=none;fillColor=none;align=center;verticalAlign=middle;whiteSpace=wrap;rounded=0;labelBackgroundColor=none;fontColor=#143642;" vertex="1" parent="1">
          <mxGeometry x="710" y="120" width="60" height="30" as="geometry" />
        </mxCell>
        <mxCell id="9hPCl79W62L0wL_UR3R--120" value="包含" style="text;html=1;strokeColor=none;fillColor=none;align=center;verticalAlign=middle;whiteSpace=wrap;rounded=0;labelBackgroundColor=none;fontColor=#143642;" vertex="1" parent="1">
          <mxGeometry x="700" y="210" width="60" height="30" as="geometry" />
        </mxCell>
        <mxCell id="9hPCl79W62L0wL_UR3R--121" value="包含" style="text;html=1;strokeColor=none;fillColor=none;align=center;verticalAlign=middle;whiteSpace=wrap;rounded=0;labelBackgroundColor=none;fontColor=#143642;" vertex="1" parent="1">
          <mxGeometry x="690" y="240" width="60" height="30" as="geometry" />
        </mxCell>
        <mxCell id="9hPCl79W62L0wL_UR3R--122" value="包含" style="text;html=1;strokeColor=none;fillColor=none;align=center;verticalAlign=middle;whiteSpace=wrap;rounded=0;labelBackgroundColor=none;fontColor=#143642;" vertex="1" parent="1">
          <mxGeometry x="690" y="420" width="60" height="30" as="geometry" />
        </mxCell>
        <mxCell id="9hPCl79W62L0wL_UR3R--123" value="包含" style="text;html=1;strokeColor=none;fillColor=none;align=center;verticalAlign=middle;whiteSpace=wrap;rounded=0;labelBackgroundColor=none;fontColor=#143642;" vertex="1" parent="1">
          <mxGeometry x="700" y="470" width="60" height="30" as="geometry" />
        </mxCell>
        <mxCell id="9hPCl79W62L0wL_UR3R--124" value="包含" style="text;html=1;strokeColor=none;fillColor=none;align=center;verticalAlign=middle;whiteSpace=wrap;rounded=0;labelBackgroundColor=none;fontColor=#143642;" vertex="1" parent="1">
          <mxGeometry x="710" y="500" width="60" height="30" as="geometry" />
        </mxCell>
        <mxCell id="9hPCl79W62L0wL_UR3R--127" value="包含" style="text;html=1;strokeColor=none;fillColor=none;align=center;verticalAlign=middle;whiteSpace=wrap;rounded=0;labelBackgroundColor=none;fontColor=#143642;" vertex="1" parent="1">
          <mxGeometry x="710" y="535" width="60" height="30" as="geometry" />
        </mxCell>
        <mxCell id="9hPCl79W62L0wL_UR3R--128" value="包含" style="text;html=1;strokeColor=none;fillColor=none;align=center;verticalAlign=middle;whiteSpace=wrap;rounded=0;labelBackgroundColor=none;fontColor=#143642;" vertex="1" parent="1">
          <mxGeometry x="670" y="550" width="60" height="30" as="geometry" />
        </mxCell>
        <mxCell id="9hPCl79W62L0wL_UR3R--129" value="包含" style="text;html=1;strokeColor=none;fillColor=none;align=center;verticalAlign=middle;whiteSpace=wrap;rounded=0;labelBackgroundColor=none;fontColor=#143642;" vertex="1" parent="1">
          <mxGeometry x="610" y="550" width="60" height="30" as="geometry" />
        </mxCell>
        <mxCell id="9hPCl79W62L0wL_UR3R--130" value="包含" style="text;html=1;strokeColor=none;fillColor=none;align=center;verticalAlign=middle;whiteSpace=wrap;rounded=0;labelBackgroundColor=none;fontColor=#143642;" vertex="1" parent="1">
          <mxGeometry x="520" y="550" width="60" height="30" as="geometry" />
        </mxCell>
        <mxCell id="9hPCl79W62L0wL_UR3R--131" value="包含" style="text;html=1;strokeColor=none;fillColor=none;align=center;verticalAlign=middle;whiteSpace=wrap;rounded=0;labelBackgroundColor=none;fontColor=#143642;" vertex="1" parent="1">
          <mxGeometry x="260" y="550" width="60" height="30" as="geometry" />
        </mxCell>
        <mxCell id="9hPCl79W62L0wL_UR3R--132" value="包含" style="text;html=1;strokeColor=none;fillColor=none;align=center;verticalAlign=middle;whiteSpace=wrap;rounded=0;labelBackgroundColor=none;fontColor=#143642;" vertex="1" parent="1">
          <mxGeometry x="200" y="550" width="60" height="30" as="geometry" />
        </mxCell>
        <mxCell id="9hPCl79W62L0wL_UR3R--133" value="包含" style="text;html=1;strokeColor=none;fillColor=none;align=center;verticalAlign=middle;whiteSpace=wrap;rounded=0;labelBackgroundColor=none;fontColor=#143642;" vertex="1" parent="1">
          <mxGeometry x="140" y="540" width="60" height="30" as="geometry" />
        </mxCell>
        <mxCell id="9hPCl79W62L0wL_UR3R--134" value="包含" style="text;html=1;strokeColor=none;fillColor=none;align=center;verticalAlign=middle;whiteSpace=wrap;rounded=0;labelBackgroundColor=none;fontColor=#143642;" vertex="1" parent="1">
          <mxGeometry x="140" y="510" width="60" height="30" as="geometry" />
        </mxCell>
        <mxCell id="9hPCl79W62L0wL_UR3R--135" value="包含" style="text;html=1;strokeColor=none;fillColor=none;align=center;verticalAlign=middle;whiteSpace=wrap;rounded=0;labelBackgroundColor=none;fontColor=#143642;" vertex="1" parent="1">
          <mxGeometry x="140" y="465" width="60" height="30" as="geometry" />
        </mxCell>
        <mxCell id="9hPCl79W62L0wL_UR3R--136" value="包含" style="text;html=1;strokeColor=none;fillColor=none;align=center;verticalAlign=middle;whiteSpace=wrap;rounded=0;labelBackgroundColor=none;fontColor=#143642;" vertex="1" parent="1">
          <mxGeometry x="270" y="260" width="60" height="30" as="geometry" />
        </mxCell>
        <mxCell id="9hPCl79W62L0wL_UR3R--137" value="包含" style="text;html=1;strokeColor=none;fillColor=none;align=center;verticalAlign=middle;whiteSpace=wrap;rounded=0;labelBackgroundColor=none;fontColor=#143642;" vertex="1" parent="1">
          <mxGeometry x="210" y="290" width="60" height="30" as="geometry" />
        </mxCell>
        <mxCell id="9hPCl79W62L0wL_UR3R--138" value="包含" style="text;html=1;strokeColor=none;fillColor=none;align=center;verticalAlign=middle;whiteSpace=wrap;rounded=0;labelBackgroundColor=none;fontColor=#143642;" vertex="1" parent="1">
          <mxGeometry x="480" y="330" width="60" height="30" as="geometry" />
        </mxCell>
        <mxCell id="9hPCl79W62L0wL_UR3R--139" value="包含" style="text;html=1;strokeColor=none;fillColor=none;align=center;verticalAlign=middle;whiteSpace=wrap;rounded=0;labelBackgroundColor=none;fontColor=#143642;" vertex="1" parent="1">
          <mxGeometry x="370" y="260" width="60" height="30" as="geometry" />
        </mxCell>
        <mxCell id="9hPCl79W62L0wL_UR3R--140" value="包含" style="text;html=1;strokeColor=none;fillColor=none;align=center;verticalAlign=middle;whiteSpace=wrap;rounded=0;labelBackgroundColor=none;fontColor=#143642;" vertex="1" parent="1">
          <mxGeometry x="440" y="270" width="60" height="30" as="geometry" />
        </mxCell>
        <mxCell id="9hPCl79W62L0wL_UR3R--141" value="拥有" style="text;html=1;strokeColor=none;fillColor=none;align=center;verticalAlign=middle;whiteSpace=wrap;rounded=0;labelBackgroundColor=none;fontColor=#143642;" vertex="1" parent="1">
          <mxGeometry x="510" y="440" width="60" height="30" as="geometry" />
        </mxCell>
        <mxCell id="9hPCl79W62L0wL_UR3R--142" value="拥有" style="text;html=1;strokeColor=none;fillColor=none;align=center;verticalAlign=middle;whiteSpace=wrap;rounded=0;labelBackgroundColor=none;fontColor=#143642;" vertex="1" parent="1">
          <mxGeometry x="330" y="440" width="60" height="30" as="geometry" />
        </mxCell>
        <mxCell id="9hPCl79W62L0wL_UR3R--145" value="对应" style="text;html=1;strokeColor=none;fillColor=none;align=center;verticalAlign=middle;whiteSpace=wrap;rounded=0;labelBackgroundColor=none;fontColor=#143642;" vertex="1" parent="1">
          <mxGeometry x="810" y="340" width="60" height="30" as="geometry" />
        </mxCell>
        <mxCell id="9hPCl79W62L0wL_UR3R--147" value="对应" style="text;html=1;strokeColor=none;fillColor=none;align=center;verticalAlign=middle;whiteSpace=wrap;rounded=0;labelBackgroundColor=none;fontColor=#143642;" vertex="1" parent="1">
          <mxGeometry x="850" y="380" width="60" height="30" as="geometry" />
        </mxCell>
      </root>
    </mxGraphModel>
  </diagram>
</mxfile>
